<?xml version="1.0" standalone="no"?>
<!DOCTYPE svg PUBLIC "-//W3C//DTD SVG 20010904//EN"
 "http://www.w3.org/TR/2001/REC-SVG-20010904/DTD/svg10.dtd">
<svg version="1.0" xmlns="http://www.w3.org/2000/svg"
 width="260.000000pt" height="260.000000pt" viewBox="0 0 260.000000 260.000000"
 preserveAspectRatio="xMidYMid meet">
<metadata>
Created by potrace 1.11, written by Peter Selinger 2001-2013
</metadata>
<g transform="translate(0.000000,260.000000) scale(0.100000,-0.100000)"
fill="#000000" stroke="none">
<path d="M1225 1299 c-148 -319 -271 -585 -273 -590 -2 -5 31 -9 75 -9 l79 0
268 577 c148 318 271 583 273 590 4 10 -14 13 -73 13 l-79 0 -270 -581z"/>
<path d="M435 1515 l-360 -144 0 -86 0 -87 365 -144 c201 -79 366 -144 367
-144 2 0 3 40 3 88 l0 89 -262 93 c-145 51 -267 96 -271 100 -5 4 114 51 262
105 l271 98 0 88 c0 49 -3 89 -7 88 -5 0 -170 -65 -368 -144z"/>
<path d="M1790 1572 l0 -89 258 -93 c303 -109 295 -105 262 -118 -14 -5 -136
-49 -272 -97 l-248 -88 0 -89 c0 -48 1 -88 3 -88 2 0 167 65 367 144 l365 144
0 86 0 87 -364 145 c-201 79 -366 144 -368 144 -2 0 -3 -40 -3 -88z"/>
</g>
</svg>
